<?xml version="1.0" encoding="UTF-8"?>
<svg version="1.1" xmlns="http://www.w3.org/2000/svg" width="512" height="512">
<path d="M0 0 C0.80341324 -0.0065712 1.60682648 -0.0131424 2.43458557 -0.01991272 C5.09913216 -0.03965939 7.76362239 -0.05131043 10.42822266 -0.0612793 C11.33709858 -0.06535482 12.2459745 -0.06943035 13.18239212 -0.07362938 C17.99154687 -0.09449451 22.80067304 -0.10879513 27.60986328 -0.11816406 C32.58238209 -0.12923826 37.55445458 -0.16364841 42.52681541 -0.20333576 C46.34606776 -0.22945103 50.16521287 -0.23785128 53.98454666 -0.24144554 C55.81780644 -0.24632356 57.65106105 -0.25797198 59.48423386 -0.27648354 C62.04844549 -0.30077054 64.61149038 -0.29992958 67.17578125 -0.29296875 C67.93436935 -0.30577881 68.69295746 -0.31858887 69.47453308 -0.33178711 C72.92780449 -0.2975796 74.87091093 -0.0774806 77.68852234 1.99263 C79.86328913 5.10004439 79.77304689 7.98811275 79.71337891 11.64575195 C79.71483414 12.36307495 79.71628937 13.08039795 79.7177887 13.81945801 C79.71613257 15.33239819 79.70460306 16.84535572 79.68383789 18.3581543 C79.65487797 20.66959429 79.66323359 22.97873971 79.67626953 25.2902832 C79.67003162 26.76295056 79.66164026 28.2356107 79.65087891 29.70825195 C79.65381454 30.39689331 79.65675018 31.08553467 79.65977478 31.79504395 C79.60289772 34.69837073 79.30502087 36.97837286 78.12768555 39.64379883 C76.21728516 41.17700195 76.21728516 41.17700195 69.21728516 41.17700195 C69.21728516 59.98700195 69.21728516 78.79700195 69.21728516 98.17700195 C73.42478516 96.13512695 77.63228516 94.09325195 81.96728516 91.98950195 C94.26787549 86.03953646 106.62479536 80.22645249 119.03369141 74.50512695 C124.1813546 72.12939263 129.31040818 69.71745773 134.43212891 67.28637695 C136.4854539 66.31526061 138.53907464 65.34477268 140.59280396 64.37451172 C141.91198794 63.74937971 143.22995197 63.12166591 144.54660034 62.49121094 C146.37893641 61.61412297 148.21599785 60.74692785 150.05322266 59.88012695 C151.1004248 59.38158203 152.14762695 58.88303711 153.2265625 58.36938477 C156.2872178 57.14912024 158.93124327 56.42414322 162.21728516 56.17700195 C165.23213292 59.19184971 164.57437372 62.63598906 164.63134766 66.68481445 C164.66039688 67.94574417 164.66039688 67.94574417 164.69003296 69.23214722 C164.74990174 71.92199499 164.79624287 74.61188539 164.84228516 77.30200195 C164.88045826 79.12363539 164.91950959 80.94525065 164.95947266 82.7668457 C165.05560913 87.23675047 165.13961285 91.70673974 165.21728516 96.17700195 C169.73070397 95.53493016 173.53305977 93.78301878 177.59619141 91.81762695 C178.31238647 91.47689148 179.02858154 91.13615601 179.76647949 90.78509521 C182.10663298 89.67065549 184.4431255 88.548746 186.77978516 87.42700195 C189.22656479 86.26007297 191.67432861 85.09522687 194.12217712 83.93054199 C195.77242105 83.14526398 197.42237325 82.35937261 199.07203674 81.57287598 C207.58460311 77.51676341 216.13580367 73.54668479 224.70019531 69.60131836 C229.82568968 67.2357638 234.93066155 64.84394688 239.99072266 62.34106445 C240.87107178 61.90922852 241.7514209 61.47739258 242.65844727 61.0324707 C244.26153823 60.24229188 245.85927464 59.4411019 247.44995117 58.6262207 C250.53179214 57.11225874 252.69097036 56.13925826 256.15869141 56.38793945 C258.21728516 57.17700195 258.21728516 57.17700195 259.21728516 58.17700195 C259.37745682 60.98676713 259.4767905 63.77473791 259.53369141 66.5871582 C259.5544725 67.42919296 259.5752536 68.27122772 259.59666443 69.13877869 C259.66225328 71.83893374 259.72108791 74.53918913 259.77978516 77.23950195 C259.82296152 79.06568437 259.86657551 80.89185649 259.91064453 82.71801758 C260.0179441 87.20424187 260.11918482 91.69056745 260.21728516 96.17700195 C264.73070017 95.5349307 268.53306709 93.78302995 272.59619141 91.81762695 C273.31234116 91.47689148 274.02849091 91.13615601 274.76634216 90.78509521 C276.30542846 90.05210926 277.84332156 89.31661363 279.38012695 88.57885742 C282.62473367 87.02141979 285.87518134 85.47636036 289.12533569 83.93054199 C290.77604503 83.1452802 292.42645498 82.35938879 294.0765686 81.57287598 C304.71896139 76.50164821 315.41130383 71.54004734 326.11962891 66.60961914 C329.16870627 65.19946892 332.20903226 63.77171321 335.24853516 62.34106445 C337.07121036 61.4941904 338.89411218 60.64780385 340.71728516 59.80200195 C341.53068359 59.41399414 342.34408203 59.02598633 343.18212891 58.6262207 C344.2978125 58.11381836 344.2978125 58.11381836 345.43603516 57.59106445 C346.07476562 57.29151855 346.71349609 56.99197266 347.37158203 56.68334961 C349.6662932 56.0538217 350.99791724 56.38598125 353.21728516 57.17700195 C354.21728516 58.17700195 354.21728516 58.17700195 354.34033298 60.84568119 C354.33941119 62.04677745 354.3384894 63.24787371 354.33753967 64.48536682 C354.33882131 65.48507701 354.33882131 65.48507701 354.34012884 66.50498337 C354.3417855 68.75448829 354.33625926 71.00391983 354.33081055 73.25341797 C354.33052869 74.85945636 354.33068638 76.46549488 354.33125305 78.0715332 C354.33154108 82.44531263 354.32564348 86.81906487 354.31867909 91.19283795 C354.31244646 95.75859774 354.31184183 100.32435808 354.31065369 104.89012146 C354.3075401 113.54221501 354.29932635 122.19429599 354.2893042 130.84638399 C354.2781439 140.69386018 354.27263282 150.54133697 354.26760876 160.38881791 C354.25714376 180.65155295 354.2395438 200.91427666 354.21728516 221.17700195 C355.2565918 221.15605469 356.29589844 221.13510742 357.36669922 221.11352539 C361.22804958 221.04104521 365.08933999 220.99517364 368.95117188 220.95727539 C370.62152218 220.93717803 372.29180228 220.90989512 373.96191406 220.87524414 C376.36492236 220.82664076 378.76699949 220.8040154 381.17041016 220.78637695 C381.91534729 220.76573181 382.66028442 220.74508667 383.42779541 220.72381592 C386.89761546 220.72231923 388.85420593 220.91217612 391.69287109 222.98266602 C393.90724666 226.17017523 393.69106724 228.38674528 393.21728516 232.17700195 C391.45713385 235.36203765 390.71837599 236.00997167 387.21728516 237.17700195 C384.95052779 237.27383777 382.68095669 237.30797861 380.41213417 237.31122303 C379.36324135 237.31475138 379.36324135 237.31475138 378.29315877 237.318351 C375.93245379 237.32504766 373.57180378 237.32458258 371.21109009 237.32417297 C369.50852098 237.32747117 367.80595265 237.33119664 366.10338533 237.33531445 C361.41096528 237.34534733 356.71855803 237.3490533 352.02612877 237.35170376 C346.97081837 237.3556029 341.91551815 237.36518138 336.86021423 237.37391663 C324.64628427 237.39369014 312.43235347 237.40374751 300.21841151 237.41264442 C294.47099952 237.4170251 288.72358847 237.4223924 282.97617722 237.42763329 C263.87892409 237.44464501 244.78167154 237.45914081 225.684412 237.46638203 C220.72727075 237.46829201 215.77012951 237.47021233 210.81298828 237.47216797 C208.96481452 237.47289358 208.96481452 237.47289358 207.07930391 237.47363385 C187.10451034 237.48194027 167.12977655 237.50728776 147.15500911 237.53974865 C126.66211389 237.57278099 106.1692491 237.59082724 85.67632711 237.59402627 C74.16423231 237.59619471 62.65222471 237.60499231 51.14015579 237.63048744 C41.33945103 237.65214208 31.53885465 237.66027068 21.73812868 237.65052066 C16.73499534 237.64596098 11.73208588 237.64795871 6.72898293 237.6672821 C2.15199988 237.68480762 -2.42459422 237.68400305 -7.00158079 237.66838481 C-8.6603894 237.66599253 -10.3192242 237.67041547 -11.97799258 237.68221346 C-14.22776646 237.69722825 -16.47614349 237.68773408 -18.72588158 237.67198658 C-20.6024883 237.67345179 -20.6024883 237.67345179 -22.51700628 237.67494661 C-26.37896278 237.086088 -28.04335297 235.91089217 -30.78271484 233.17700195 C-31.41162109 231.17700195 -31.41162109 231.17700195 -31.34521484 229.17700195 C-31.34650391 228.51700195 -31.34779297 227.85700195 -31.34912109 227.17700195 C-30.78271484 225.17700195 -30.78271484 225.17700195 -26.78271484 221.17700195 C-18.20271484 221.17700195 -9.62271484 221.17700195 -0.78271484 221.17700195 C-0.78271484 161.77700195 -0.78271484 102.37700195 -0.78271484 41.17700195 C-3.09271484 41.17700195 -5.40271484 41.17700195 -7.78271484 41.17700195 C-10.78271484 39.17700195 -10.78271484 39.17700195 -11.78271484 36.17700195 C-11.98808243 31.76211665 -11.96851629 27.34486167 -11.96801758 22.92578125 C-11.97020343 20.75085871 -11.98836982 18.57644412 -12.00732422 16.40161133 C-12.01025857 15.01554535 -12.01224309 13.62947697 -12.01318359 12.2434082 C-12.01729248 10.98471924 -12.02140137 9.72603027 -12.02563477 8.42919922 C-11.79718549 5.37073416 -11.49814649 3.68057432 -9.78271484 1.17700195 C-6.68344027 -0.37263533 -3.4026622 0.01199711 0 0 Z " fill="#3AC2A3" transform="translate(67.78271484375,73.822998046875)"/>
<path d="M0 0 C0.80341324 -0.0065712 1.60682648 -0.0131424 2.43458557 -0.01991272 C5.09913216 -0.03965939 7.76362239 -0.05131043 10.42822266 -0.0612793 C11.33709858 -0.06535482 12.2459745 -0.06943035 13.18239212 -0.07362938 C17.99154687 -0.09449451 22.80067304 -0.10879513 27.60986328 -0.11816406 C32.58238209 -0.12923826 37.55445458 -0.16364841 42.52681541 -0.20333576 C46.34606776 -0.22945103 50.16521287 -0.23785128 53.98454666 -0.24144554 C55.81780644 -0.24632356 57.65106105 -0.25797198 59.48423386 -0.27648354 C62.04844549 -0.30077054 64.61149038 -0.29992958 67.17578125 -0.29296875 C67.93436935 -0.30577881 68.69295746 -0.31858887 69.47453308 -0.33178711 C72.92780449 -0.2975796 74.87091093 -0.0774806 77.68852234 1.99263 C79.86328913 5.10004439 79.77304689 7.98811275 79.71337891 11.64575195 C79.71483414 12.36307495 79.71628937 13.08039795 79.7177887 13.81945801 C79.71613257 15.33239819 79.70460306 16.84535572 79.68383789 18.3581543 C79.65487797 20.66959429 79.66323359 22.97873971 79.67626953 25.2902832 C79.67003162 26.76295056 79.66164026 28.2356107 79.65087891 29.70825195 C79.65381454 30.39689331 79.65675018 31.08553467 79.65977478 31.79504395 C79.60289772 34.69837073 79.30502087 36.97837286 78.12768555 39.64379883 C76.21728516 41.17700195 76.21728516 41.17700195 69.21728516 41.17700195 C69.21728516 100.57700195 69.21728516 159.97700195 69.21728516 221.17700195 C103.79767578 221.10739258 103.79767578 221.10739258 139.07666016 221.03637695 C153.64176551 221.01594989 168.20686211 220.99650535 182.77197266 220.98168945 C190.42008498 220.97385762 198.06819698 220.9657756 205.71630859 220.95727539 C207.15421489 220.9556929 207.15421489 220.9556929 208.62116981 220.95407844 C224.10961284 220.93666759 239.59799665 220.90512486 255.08640453 220.86839077 C270.9743945 220.83102246 286.86235341 220.80877481 302.75038552 220.80064797 C312.55905007 220.79515166 322.3675473 220.77777432 332.17616037 220.74533609 C338.89666323 220.7242389 345.61707924 220.717791 352.33761284 220.72299644 C356.21863392 220.72556573 360.09936205 220.72154845 363.98033142 220.70018005 C368.18302426 220.67720855 372.38508859 220.68502052 376.58782959 220.69598389 C377.82128168 220.68433252 379.05473377 220.67268116 380.32556319 220.66067672 C381.44821397 220.66864091 382.57086475 220.67660511 383.72753525 220.68481064 C385.18338299 220.68253232 385.18338299 220.68253232 386.66864181 220.68020797 C389.98680986 221.32700146 391.17670304 222.52608275 393.21728516 225.17700195 C393.68647198 228.93049657 393.74864897 231.21548649 391.90478516 234.55200195 C388.54551804 237.78685177 384.83100571 237.30490403 380.41213417 237.31122303 C379.36324135 237.31475138 379.36324135 237.31475138 378.29315877 237.318351 C375.93245379 237.32504766 373.57180378 237.32458258 371.21109009 237.32417297 C369.50852098 237.32747117 367.80595265 237.33119664 366.10338533 237.33531445 C361.41096528 237.34534733 356.71855803 237.3490533 352.02612877 237.35170376 C346.97081837 237.3556029 341.91551815 237.36518138 336.86021423 237.37391663 C324.64628427 237.39369014 312.43235347 237.40374751 300.21841151 237.41264442 C294.47099952 237.4170251 288.72358847 237.4223924 282.97617722 237.42763329 C263.87892409 237.44464501 244.78167154 237.45914081 225.684412 237.46638203 C220.72727075 237.46829201 215.77012951 237.47021233 210.81298828 237.47216797 C208.96481452 237.47289358 208.96481452 237.47289358 207.07930391 237.47363385 C187.10451034 237.48194027 167.12977655 237.50728776 147.15500911 237.53974865 C126.66211389 237.57278099 106.1692491 237.59082724 85.67632711 237.59402627 C74.16423231 237.59619471 62.65222471 237.60499231 51.14015579 237.63048744 C41.33945103 237.65214208 31.53885465 237.66027068 21.73812868 237.65052066 C16.73499534 237.64596098 11.73208588 237.64795871 6.72898293 237.6672821 C2.15199988 237.68480762 -2.42459422 237.68400305 -7.00158079 237.66838481 C-8.6603894 237.66599253 -10.3192242 237.67041547 -11.97799258 237.68221346 C-14.22776646 237.69722825 -16.47614349 237.68773408 -18.72588158 237.67198658 C-20.6024883 237.67345179 -20.6024883 237.67345179 -22.51700628 237.67494661 C-26.37896278 237.086088 -28.04335297 235.91089217 -30.78271484 233.17700195 C-31.41162109 231.17700195 -31.41162109 231.17700195 -31.34521484 229.17700195 C-31.34650391 228.51700195 -31.34779297 227.85700195 -31.34912109 227.17700195 C-30.78271484 225.17700195 -30.78271484 225.17700195 -26.78271484 221.17700195 C-18.20271484 221.17700195 -9.62271484 221.17700195 -0.78271484 221.17700195 C-0.78271484 161.77700195 -0.78271484 102.37700195 -0.78271484 41.17700195 C-3.09271484 41.17700195 -5.40271484 41.17700195 -7.78271484 41.17700195 C-10.78271484 39.17700195 -10.78271484 39.17700195 -11.78271484 36.17700195 C-11.98808243 31.76211665 -11.96851629 27.34486167 -11.96801758 22.92578125 C-11.97020343 20.75085871 -11.98836982 18.57644412 -12.00732422 16.40161133 C-12.01025857 15.01554535 -12.01224309 13.62947697 -12.01318359 12.2434082 C-12.01729248 10.98471924 -12.02140137 9.72603027 -12.02563477 8.42919922 C-11.79718549 5.37073416 -11.49814649 3.68057432 -9.78271484 1.17700195 C-6.68344027 -0.37263533 -3.4026622 0.01199711 0 0 Z " fill="#D9EEFF" transform="translate(67.78271484375,73.822998046875)"/>
<path d="M0 0 C14.52 0 29.04 0 44 0 C48 4 48 4 48.49219131 6.86603165 C48.48666056 8.54185129 48.48666056 8.54185129 48.48101807 10.25152588 C48.48651672 11.53597595 48.49201538 12.82042603 48.49768066 14.14379883 C48.48352491 15.56494515 48.46898569 16.98608769 48.45410156 18.40722656 C48.45297314 19.90533416 48.45360684 21.40344398 48.45587158 22.90155029 C48.45701988 26.96749314 48.43349223 31.03296457 48.40557575 35.0987978 C48.38058117 39.34820991 48.37822164 43.59763266 48.37347412 47.84710693 C48.36103861 55.89358579 48.32820928 63.93984743 48.28807616 71.98623061 C48.24337631 81.14694064 48.22137592 90.30766101 48.20129442 99.46845293 C48.15947704 118.31245015 48.08611758 137.15614957 48 156 C32.16 156 16.32 156 0 156 C0 104.52 0 53.04 0 0 Z " fill="#EEF5FF" transform="translate(67,139)"/>
<path d="M0 0 C0.33 0 0.66 0 1 0 C1 40.26 1 80.52 1 122 C10.67280273 121.97905273 20.34560547 121.95810547 30.31152344 121.93652344 C61.23902086 121.87236247 92.16651852 121.8278469 123.09406517 121.79573868 C127.8957181 121.79073568 132.69737082 121.78555841 137.49902344 121.78027344 C138.45497092 121.7792242 139.41091841 121.77817495 140.395834 121.77709392 C155.88696058 121.75967508 171.37802795 121.72812927 186.86911938 121.69138882 C202.75710935 121.6540205 218.64506825 121.63177286 234.53310037 121.62364602 C244.34176492 121.6181497 254.15026215 121.60077236 263.95887521 121.56833413 C270.67937808 121.54723694 277.39979408 121.54078904 284.12032768 121.54599449 C288.00134877 121.54856378 291.88207689 121.54454649 295.76304626 121.5231781 C299.96573911 121.50020659 304.16780344 121.50801857 308.37054443 121.51898193 C309.60399652 121.50733057 310.83744861 121.4956792 312.10827804 121.48367476 C313.23092881 121.49163896 314.35357959 121.49960315 315.51025009 121.50780869 C316.48081526 121.5062898 317.45138042 121.50477092 318.45135665 121.50320601 C321.7695247 122.14999951 322.95941789 123.3490808 325 126 C325.46918683 129.75349462 325.53136381 132.03848453 323.6875 135.375 C320.32823288 138.60984982 316.61372056 138.12790208 312.19484901 138.13422108 C311.14595619 138.13774942 311.14595619 138.13774942 310.07587361 138.14134905 C307.71516864 138.14804571 305.35451862 138.14758063 302.99380493 138.14717102 C301.29123582 138.15046921 299.5886675 138.15419469 297.88610017 138.1583125 C293.19368013 138.16834537 288.50127287 138.17205135 283.80884361 138.17470181 C278.75353322 138.17860095 273.69823299 138.18817942 268.64292908 138.19691467 C256.42899912 138.21668818 244.21506832 138.22674556 232.00112635 138.23564246 C226.25371437 138.24002314 220.50630331 138.24539045 214.75889206 138.25063133 C195.66163893 138.26764305 176.56438639 138.28213886 157.46712685 138.28938007 C152.5099856 138.29129006 147.55284436 138.29321038 142.59570312 138.29516602 C140.74752936 138.29589163 140.74752936 138.29589163 138.86201875 138.2966319 C118.88722519 138.30493831 98.91249139 138.3302858 78.93772395 138.36274669 C58.44482874 138.39577904 37.95196394 138.41382529 17.45904195 138.41702431 C5.94694715 138.41919276 -5.56506045 138.42799036 -17.07712936 138.45348549 C-26.87783413 138.47514013 -36.67843051 138.48326873 -46.47915648 138.47351871 C-51.48228981 138.46895902 -56.48519928 138.47095675 -61.48830223 138.49028015 C-66.06528528 138.50780566 -70.64187938 138.5070011 -75.21886595 138.49138286 C-76.87767456 138.48899058 -78.53650936 138.49341352 -80.19527774 138.50521151 C-82.44505162 138.52022629 -84.69342865 138.51073213 -86.94316673 138.49498463 C-88.81977346 138.49644984 -88.81977346 138.49644984 -90.73429143 138.49794465 C-94.59624794 137.90908605 -96.26063812 136.73389021 -99 134 C-99.62890625 132 -99.62890625 132 -99.5625 130 C-99.56378906 129.34 -99.56507812 128.68 -99.56640625 128 C-98.70455999 124.95679115 -97.54307854 123.90717131 -95 122 C-91.94368868 121.41426711 -88.92838204 121.49489078 -85.82519531 121.54589844 C-84.88305553 121.5454163 -83.94091576 121.54493416 -82.97022629 121.54443741 C-79.92247404 121.5474215 -76.87570204 121.57787408 -73.828125 121.609375 C-71.94580557 121.61525661 -70.06347962 121.61933704 -68.18115234 121.62158203 C-61.20400175 121.64254805 -54.22699123 121.69839301 -47.25 121.75 C-23.86125 121.87375 -23.86125 121.87375 0 122 C0 81.74 0 41.48 0 0 Z " fill="#B3C3CE" transform="translate(136,173)"/>
<path d="M0 0 C0.80341324 -0.0065712 1.60682648 -0.0131424 2.43458557 -0.01991272 C5.09913216 -0.03965939 7.76362239 -0.05131043 10.42822266 -0.0612793 C11.33709858 -0.06535482 12.2459745 -0.06943035 13.18239212 -0.07362938 C17.99154687 -0.09449451 22.80067304 -0.10879513 27.60986328 -0.11816406 C32.58238209 -0.12923826 37.55445458 -0.16364841 42.52681541 -0.20333576 C46.34606776 -0.22945103 50.16521287 -0.23785128 53.98454666 -0.24144554 C55.81780644 -0.24632356 57.65106105 -0.25797198 59.48423386 -0.27648354 C62.04844549 -0.30077054 64.61149038 -0.29992958 67.17578125 -0.29296875 C67.93436935 -0.30577881 68.69295746 -0.31858887 69.47453308 -0.33178711 C72.92780449 -0.2975796 74.87091093 -0.0774806 77.68852234 1.99263 C79.86328913 5.10004439 79.77304689 7.98811275 79.71337891 11.64575195 C79.71483414 12.36307495 79.71628937 13.08039795 79.7177887 13.81945801 C79.71613257 15.33239819 79.70460306 16.84535572 79.68383789 18.3581543 C79.65487797 20.66959429 79.66323359 22.97873971 79.67626953 25.2902832 C79.67003162 26.76295056 79.66164026 28.2356107 79.65087891 29.70825195 C79.65381454 30.39689331 79.65675018 31.08553467 79.65977478 31.79504395 C79.60520798 34.58044177 79.38253763 36.82499634 78.192276 39.36038208 C75.19866349 42.11394217 72.07491149 41.7192079 68.21337891 41.6628418 C67.39845978 41.66663849 66.58354065 41.67043518 65.743927 41.67434692 C63.04715626 41.68176321 60.35146033 41.66035551 57.65478516 41.63793945 C55.78296027 41.63555555 53.91113297 41.63464959 52.03930664 41.63516235 C48.11508215 41.6320325 44.19122254 41.6154531 40.26708984 41.58862305 C35.23294751 41.55464294 30.19920634 41.54699436 25.16496277 41.54851341 C21.2993994 41.54796995 17.43392402 41.53700665 13.56838989 41.52251053 C11.71201239 41.51613905 9.85562491 41.51220282 7.99923706 41.51072311 C5.40638192 41.50639381 2.8139548 41.48890095 0.22119141 41.4675293 C-0.54877167 41.46843567 -1.31873474 41.46934204 -2.11203003 41.47027588 C-5.87313073 41.42487099 -7.57365547 41.31637487 -10.78271484 39.17700195 C-12.51829403 33.97026441 -11.96863279 28.3771767 -11.96801758 22.92578125 C-11.97020343 20.75085871 -11.98836982 18.57644412 -12.00732422 16.40161133 C-12.01025857 15.01554535 -12.01224309 13.62947697 -12.01318359 12.2434082 C-12.01729248 10.98471924 -12.02140137 9.72603027 -12.02563477 8.42919922 C-11.79718549 5.37073416 -11.49814649 3.68057432 -9.78271484 1.17700195 C-6.68344027 -0.37263533 -3.4026622 0.01199711 0 0 Z " fill="#375E7D" transform="translate(67.78271484375,73.822998046875)"/>
<path d="M0 0 C14.55487961 11.99711834 14.55487961 11.99711834 15.11328125 17.24609375 C14.75767516 20.7310334 14.43930622 22.01052361 11.80078125 24.30859375 C8.05316363 25.34959864 5.86355404 25.84587508 2.3359375 24.0625 C-0.18579583 22.31788017 -2.21116992 20.46432884 -4.38671875 18.30859375 C-24.58957097 -0.12049615 -52.35857395 -9.4392404 -79.51855469 -8.62158203 C-105.71731187 -7.39137034 -129.25501278 2.08970966 -148.76953125 19.6171875 C-155.29345065 25.23554794 -155.29345065 25.23554794 -160.07421875 25.62109375 C-163.84162427 24.03878343 -165.30424194 22.94063264 -167.19921875 19.30859375 C-167.39157102 15.84625284 -167.08417988 13.59411624 -165.0859375 10.69140625 C-151.09268399 -4.42275387 -130.72187647 -14.99363688 -111.19921875 -20.69140625 C-110.51150391 -20.90168457 -109.82378906 -21.11196289 -109.11523438 -21.32861328 C-72.45920942 -32.1556852 -29.90469586 -23.3491333 0 0 Z " fill="#B6C4CF" transform="translate(339.19921875,24.69140625)"/>
<path d="M0 0 C1 1 1 1 1.12304783 3.66867924 C1.12166514 5.47032362 1.12166514 5.47032362 1.12025452 7.30836487 C1.12110894 7.97483833 1.12196337 8.64131179 1.12284368 9.32798141 C1.12450035 11.57748634 1.11897411 13.82691788 1.11352539 16.07641602 C1.11324353 17.68245441 1.11340122 19.28849293 1.1139679 20.89453125 C1.11425593 25.26831067 1.10835832 29.64206292 1.10139394 34.015836 C1.09516131 38.58159578 1.09455667 43.14735613 1.09336853 47.71311951 C1.09025495 56.36521305 1.08204119 65.01729403 1.07201904 73.66938204 C1.06085874 83.51685823 1.05534766 93.36433501 1.05032361 103.21181595 C1.0398586 123.47455119 1.02205825 143.73727436 1 164 C-5.27 164 -11.54 164 -18 164 C-18 111.86 -18 59.72 -18 6 C-4 -1 -4 -1 0 0 Z " fill="#02A988" transform="translate(421,131)"/>
<path d="M0 0 C3.33273153 3.01358455 5.906281 6.09625989 8.3125 9.875 C12.57783042 16.42562351 17.02796294 22.83895202 21.5 29.25 C22.23130127 30.29913574 22.96260254 31.34827148 23.71606445 32.42919922 C25.47640261 34.95348126 27.23768707 37.47709641 29 40 C29.00410889 38.93563721 29.00821777 37.87127441 29.01245117 36.7746582 C29.03427448 32.81388366 29.08859606 28.85409805 29.15258789 24.89379883 C29.17574025 23.18198141 29.19015715 21.4700221 29.19555664 19.75805664 C29.20486703 17.29223502 29.24589779 14.82863626 29.29296875 12.36328125 C29.2890361 11.60163162 29.28510345 10.83998199 29.28105164 10.05525208 C29.39011666 6.05552077 29.84824275 4.19212943 32.35668945 1.01635742 C35 -1 35 -1 38 -1.625 C42.04760046 -0.7817499 43.39756674 0.83055482 46 4 C46.62818909 7.03527832 46.62818909 7.03527832 46.63110352 10.45507812 C46.64363663 11.73991089 46.65616974 13.02474365 46.66908264 14.34851074 C46.65681393 15.7427675 46.64339385 17.13701453 46.62890625 18.53125 C46.62973549 19.96944356 46.63219697 21.40763701 46.63621521 22.8458252 C46.6390693 25.85535315 46.62441183 28.86413527 46.59692383 31.87353516 C46.56284021 35.72396688 46.5688621 39.57306554 46.5875864 43.4235611 C46.59817403 46.39197833 46.58920289 49.36008735 46.57420158 52.32847595 C46.56903215 53.74778833 46.56948654 55.16713306 46.57574654 56.58644104 C46.58121892 58.57264383 46.55792664 60.55886241 46.53344727 62.54492188 C46.5241494 64.23772278 46.5241494 64.23772278 46.5146637 65.96472168 C45.88470533 69.67996134 44.63520076 71.3491937 42 74 C38.5796223 75.18969659 36.70998482 75.22149099 33.2578125 74.14453125 C28.39611743 70.94420679 25.87395524 66.52498152 22.75 61.6875 C21.43223642 59.69839217 20.11322323 57.71011164 18.79296875 55.72265625 C18.15149902 54.7495752 17.5100293 53.77649414 16.84912109 52.77392578 C14.33296325 48.9993568 11.71821523 45.3021792 9.0625 41.625 C8.33571045 40.61832275 7.6089209 39.61164551 6.86010742 38.57446289 C6.24627197 37.72489014 5.63243652 36.87531738 5 36 C4.99383667 37.50566528 4.99383667 37.50566528 4.98754883 39.04174805 C4.96571688 42.77891844 4.91138706 46.51504201 4.84741211 50.25170898 C4.82426714 51.86651549 4.80984457 53.48147221 4.80444336 55.09643555 C4.79512726 57.42331148 4.75408632 59.74783676 4.70703125 62.07421875 C4.71293022 63.15107185 4.71293022 63.15107185 4.71894836 64.24967957 C4.60708504 68.12400462 4.09649545 69.8769579 1.6784668 72.96020508 C-1 75 -1 75 -4.5625 75.5625 C-8.60498588 74.90100231 -9.54673278 74.20571076 -12 71 C-12.50120544 68.00231934 -12.50120544 68.00231934 -12.50170898 64.45898438 C-12.50711197 63.81133621 -12.51251495 63.16368805 -12.51808167 62.49641418 C-12.53055979 60.36172376 -12.51408643 58.22838462 -12.49609375 56.09375 C-12.49624876 54.60689219 -12.49773811 53.12003396 -12.50050354 51.63317871 C-12.50188711 48.51943057 -12.48933733 45.40614329 -12.46655273 42.29248047 C-12.43816766 38.30422485 -12.44090571 34.31673483 -12.45364285 30.32842255 C-12.46060284 27.25886513 -12.45280719 24.18948422 -12.44038582 21.11994934 C-12.4358744 19.64956845 -12.43553183 18.1791686 -12.43945122 16.70878601 C-12.44236674 14.6524685 -12.42584252 12.5972004 -12.40405273 10.54101562 C-12.39864975 9.37171509 -12.39324677 8.20241455 -12.38768005 6.99768066 C-11.96128227 3.70062067 -11.33855744 2.32651442 -9 0 C-5.37580435 -1.20806522 -3.66716248 -1.0268055 0 0 Z " fill="#2A4C65" transform="translate(65,337)"/>
<path d="M0 0 C1.53914063 -0.00773437 1.53914063 -0.00773437 3.109375 -0.015625 C4.1715625 -0.00015625 5.23375 0.0153125 6.328125 0.03125 C7.37484375 0.01578125 8.4215625 0.0003125 9.5 -0.015625 C17.76114413 0.02568072 24.21619876 1.853142 30.890625 6.78125 C36.08727404 12.09875135 37.81865136 16.55840913 38.078125 24.03125 C37.82196373 30.96361426 36.53624557 35.53146576 31.63671875 40.5 C28.74391368 43.09979534 25.815538 45.37297467 22.578125 47.53125 C23.24199219 48.24410156 23.90585937 48.95695312 24.58984375 49.69140625 C37.25791627 63.43210389 37.25791627 63.43210389 38.140625 69.21875 C37.578125 72.53125 37.578125 72.53125 36.015625 74.96875 C32.57876153 77.17186761 30.59454344 77.15448734 26.578125 76.53125 C21.24416329 73.16853501 17.69684322 68.16498863 13.82421875 63.25 C11.55312065 60.50098387 9.13609148 58.01279217 6.578125 55.53125 C6.55685547 57.17673828 6.55685547 57.17673828 6.53515625 58.85546875 C6.48823792 60.30993698 6.43999062 61.76436277 6.390625 63.21875 C6.38482422 63.93998047 6.37902344 64.66121094 6.37304688 65.40429688 C6.20416182 69.51383325 5.8678305 71.15988255 3.25 74.515625 C0.578125 76.53125 0.578125 76.53125 -2.984375 77.09375 C-7.02936639 76.43184232 -7.96875604 75.74100992 -10.421875 72.53125 C-10.9365387 69.49560547 -10.9365387 69.49560547 -10.95532227 65.8984375 C-10.96393784 65.24103577 -10.97255341 64.58363403 -10.98143005 63.90631104 C-11.00408224 61.73922039 -10.99735425 59.57342362 -10.98828125 57.40625 C-10.99351697 55.89696875 -10.99979326 54.38769078 -11.00706482 52.87841797 C-11.01746732 49.71761663 -11.01290979 46.55726554 -10.99829102 43.39648438 C-10.98109596 39.34740547 -11.00460593 35.29974465 -11.03978062 31.25082397 C-11.06174816 28.13491426 -11.06031503 25.0193443 -11.0520153 21.90338135 C-11.05119554 20.41064904 -11.05806386 18.91789186 -11.07278633 17.42523193 C-11.09022453 15.3372902 -11.07570301 13.25190179 -11.05297852 11.1640625 C-11.05201675 9.97699707 -11.05105499 8.78993164 -11.05006409 7.56689453 C-10.421875 4.53125 -10.421875 4.53125 -8.04667664 2.14904785 C-5.08393361 0.32295965 -3.45154727 0.01688978 0 0 Z M5.578125 16.53125 C5.578125 21.48125 5.578125 26.43125 5.578125 31.53125 C12.94729857 32.07212952 12.94729857 32.07212952 19.765625 29.90625 C21.79498415 27.61625343 21.79498415 27.61625343 22.140625 24.53125 C21.46514236 20.9286759 20.41139287 19.78119801 17.578125 17.53125 C15.05337038 16.26887269 13.26612034 16.43268596 10.453125 16.46875 C8.844375 16.489375 7.235625 16.51 5.578125 16.53125 Z " fill="#2A4C65" transform="translate(398.421875,336.46875)"/>
<path d="M0 0 C1.11052734 -0.00515625 2.22105469 -0.0103125 3.36523438 -0.015625 C4.52216797 -0.00015625 5.67910156 0.0153125 6.87109375 0.03125 C8.00095703 0.01578125 9.13082031 0.0003125 10.29492188 -0.015625 C19.89542771 0.02859149 28.39580863 1.56385403 35.68359375 8.15625 C44.36636125 17.79981554 46.73563947 28.93159607 46.18359375 41.65625 C45.08330344 53.3840503 40.33369704 62.02721653 31.69921875 69.91796875 C24.03123259 75.09260647 16.5457363 75.02172887 7.55859375 74.96875 C6.34042969 74.98873047 5.12226563 75.00871094 3.8671875 75.02929688 C2.69800781 75.02865234 1.52882812 75.02800781 0.32421875 75.02734375 C-0.73506836 75.02919678 -1.79435547 75.0310498 -2.88574219 75.03295898 C-6.47494038 74.39113839 -7.45827847 73.38335969 -9.69140625 70.53125 C-10.19934082 67.5715332 -10.19934082 67.5715332 -10.20898438 64.08203125 C-10.22159302 62.77387451 -10.23420166 61.46571777 -10.24719238 60.11791992 C-10.24003258 58.69319113 -10.23182859 57.26846726 -10.22265625 55.84375 C-10.22535174 54.37931053 -10.22923463 52.91487281 -10.23425293 51.45043945 C-10.24014544 48.3837782 -10.23159371 45.31758351 -10.21289062 42.25097656 C-10.19010035 38.32311364 -10.20322488 34.39634394 -10.22718048 30.46852112 C-10.24164566 27.44526963 -10.23702936 24.42227667 -10.22666931 21.39901733 C-10.22400397 19.95095693 -10.22726507 18.50287294 -10.23658752 17.05484009 C-10.24676284 15.0300543 -10.22849957 13.00518606 -10.20898438 10.98046875 C-10.205802 9.82893311 -10.20261963 8.67739746 -10.19934082 7.4909668 C-9.17327004 1.51208861 -5.65080023 0.02553828 0 0 Z M6.30859375 16.53125 C6.30859375 30.39125 6.30859375 44.25125 6.30859375 58.53125 C17.56543321 59.56024151 17.56543321 59.56024151 23.30859375 55.53125 C28.81992545 49.54751844 30.20177869 43.50677433 30.30859375 35.53125 C29.57748515 28.28979339 27.14070681 23.22175741 21.80859375 18.15625 C17.13771536 15.68902739 17.13771536 15.68902739 6.30859375 16.53125 Z " fill="#2A4C65" transform="translate(137.69140625,336.46875)"/>
<path d="M0 0 C3.52852325 2.66074899 5.93165321 5.84195683 8.16015625 9.62890625 C8.7015625 10.52416016 8.7015625 10.52416016 9.25390625 11.4375 C12.06516584 18.23541652 11.34633532 26.2607211 11.34545898 33.47998047 C11.34764341 35.49207798 11.36584014 37.50362421 11.38476562 39.515625 C11.40118477 50.49455806 11.05553041 59.39259548 3.16015625 67.62890625 C-4.57770227 74.23559478 -12.09896366 74.33122676 -21.83984375 73.62890625 C-28.37118256 72.0391075 -33.35272452 67.25243778 -36.83984375 61.62890625 C-40.71499496 54.071917 -40.29811128 45.76102639 -40.23095703 37.49072266 C-40.21487749 35.1338513 -40.2308628 32.77869421 -40.25 30.421875 C-40.26659209 19.50550478 -39.69207663 10.55514307 -31.83984375 2.359375 C-22.84997591 -5.41896768 -10.18299798 -5.81175982 0 0 Z M-22.83984375 17.62890625 C-25.02698766 22.00319406 -24.06694996 27.8885076 -24.08007812 32.74975586 C-24.08976065 34.92275608 -24.12077201 37.09480088 -24.15234375 39.26757812 C-24.15887644 40.65494231 -24.16412587 42.04231325 -24.16796875 43.4296875 C-24.17731445 44.68950439 -24.18666016 45.94932129 -24.19628906 47.24731445 C-23.81090911 50.9034088 -23.05994325 52.73217712 -20.83984375 55.62890625 C-17.08936893 58.12922279 -15.28128109 58.16494179 -10.83984375 57.62890625 C-7.6803007 55.08753466 -6.12443489 53.48267966 -4.83984375 49.62890625 C-4.57631073 45.04982032 -4.60833505 40.46474791 -4.58984375 35.87890625 C-4.56921875 34.615625 -4.54859375 33.35234375 -4.52734375 32.05078125 C-4.44757978 22.90555714 -4.44757978 22.90555714 -7.83984375 14.62890625 C-14.03143083 10.50118153 -18.37835346 12.11765354 -22.83984375 17.62890625 Z " fill="#2A4C65" transform="translate(308.83984375,438.37109375)"/>
<path d="M0 0 C2.7248475 2.82620783 3.37648152 4.82770317 3.40063477 8.70507812 C3.41397354 9.63284058 3.42731232 10.56060303 3.4410553 11.51647949 C3.44117111 12.51135376 3.44128693 13.50622803 3.44140625 14.53125 C3.45461411 15.55931763 3.46782196 16.58738525 3.48143005 17.64660645 C3.52232884 20.93109855 3.54399809 24.21531082 3.5625 27.5 C3.58628755 30.7846038 3.61441166 34.06894399 3.65428162 37.35339355 C3.67863071 39.39667584 3.69349569 41.44009788 3.69789124 43.48352051 C3.70807785 44.41128296 3.71826447 45.33904541 3.72875977 46.29492188 C3.73303482 47.10892456 3.73730988 47.92292725 3.74171448 48.76159668 C4.15795812 52.36892682 5.3085029 54.41327519 8.0625 56.75 C12.12745677 58.47976884 15.64529653 58.70533929 20 58 C23.8026029 55.9949912 25.61790841 54.57313738 28 51 C28.29289947 48.83486252 28.29289947 48.83486252 28.23950195 46.42431641 C28.24323318 45.49970612 28.24696442 44.57509583 28.25080872 43.62246704 C28.24667465 42.62556854 28.24254059 41.62867004 28.23828125 40.6015625 C28.25370001 38.49218106 28.27000357 36.38280593 28.28710938 34.2734375 C28.3035722 30.94647307 28.31248931 27.61997061 28.30541992 24.29296875 C28.3028019 21.0828006 28.33090782 17.87404249 28.36328125 14.6640625 C28.35307449 13.67121246 28.34286774 12.67836243 28.33235168 11.65542603 C28.39869767 6.97209342 28.48777337 4.7020343 31.31323242 0.82958984 C34 -1 34 -1 37.625 -0.9375 C41 0 41 0 44 2 C44.94461333 4.83383998 45.14151594 6.64704304 45.17700195 9.58813477 C45.19625481 10.98087364 45.19625481 10.98087364 45.21589661 12.40174866 C45.22328354 13.40483566 45.23067047 14.40792267 45.23828125 15.44140625 C45.246353 16.47885483 45.25442474 17.51630341 45.26274109 18.58518982 C45.27657992 20.78504772 45.28730297 22.98492708 45.29516602 25.18481445 C45.31230923 28.52532638 45.35618982 31.86483051 45.40039062 35.20507812 C45.41052409 37.34634691 45.41903814 39.4876241 45.42578125 41.62890625 C45.44328934 42.61782364 45.46079742 43.60674103 45.47883606 44.62562561 C45.45427051 52.6073152 43.83585826 59.5509832 38.6875 65.8125 C28.85352344 73.81689953 20.99577667 76.31977836 8 75 C4.27276893 73.82092821 1.2227507 72.19485648 -2 70 C-2.59425781 69.60425781 -3.18851563 69.20851563 -3.80078125 68.80078125 C-8.72738498 65.12110948 -11.83587023 60.03190969 -13 54 C-13.09899389 52.34192767 -13.14805641 50.68050465 -13.16113281 49.01953125 C-13.17074036 48.03170654 -13.1803479 47.04388184 -13.19024658 46.02612305 C-13.19449646 44.96562744 -13.19874634 43.90513184 -13.203125 42.8125 C-13.20882507 41.71784424 -13.21452515 40.62318848 -13.22039795 39.49536133 C-13.22983782 37.18213872 -13.23637791 34.86890272 -13.24023438 32.55566406 C-13.2499631 29.01343514 -13.28100598 25.47178086 -13.3125 21.9296875 C-13.31902799 19.68229511 -13.32427926 17.43489858 -13.328125 15.1875 C-13.3404718 14.12700439 -13.3528186 13.06650879 -13.36553955 11.97387695 C-13.36253845 10.98605225 -13.35953735 9.99822754 -13.35644531 8.98046875 C-13.36191376 7.67952271 -13.36191376 7.67952271 -13.36749268 6.35229492 C-12.91563043 3.45995631 -12.00528817 2.10884903 -10 0 C-6.20519658 -1.26493447 -3.87641726 -0.89988258 0 0 Z " fill="#2A4C65" transform="translate(211,337)"/>
<path d="M0 0 C3.06796228 2.64960379 3.62562644 3.25563799 4.0625 7.1875 C3.66378388 11.2544044 2.86416229 12.72796205 -0.25 15.375 C-5.92813306 16.21275734 -8.51346862 15.48314866 -13.390625 12.33984375 C-16.75194277 10.59563053 -20.49371532 10.16670325 -24.25 10.375 C-26.48531954 11.01066302 -26.48531954 11.01066302 -28.25 12.375 C-29.05528889 14.42500871 -29.05528889 14.42500871 -29.25 16.375 C-23.61747805 19.30806443 -17.94961927 21.92617037 -12.0625 24.3125 C-4.66093098 27.45012165 1.20792468 30.89728544 4.75 38.375 C6.94447433 45.96161127 6.17554254 52.14430212 2.37109375 59.07421875 C-1.56978291 64.66741478 -6.72591305 67.60440427 -13.25 69.375 C-25.76054805 70.58252765 -35.76456173 68.62034351 -45.69140625 60.83984375 C-48.39356417 58.30022165 -49.22222766 56.62957979 -49.625 52.9375 C-49.25 49.375 -49.25 49.375 -47.5625 47 C-44.86633883 45.10540026 -43.56085597 44.375 -40.25 44.375 C-36.20479461 46.36211844 -32.8444503 48.67916228 -29.25 51.375 C-24.92240486 52.81753171 -20.7726114 52.92952401 -16.25 52.375 C-13.16308423 50.57982277 -13.16308423 50.57982277 -11.25 48.375 C-11.12184635 45.9897267 -11.12184635 45.9897267 -12.25 43.375 C-16.61060525 40.47297763 -21.75760916 38.75213698 -26.64428711 36.94116211 C-35.6307852 33.55845035 -41.19699099 30.2266006 -45.75 21.5 C-46.7831889 15.04256934 -46.25048079 8.53886597 -42.60546875 2.97265625 C-31.70078063 -9.88041995 -13.27733787 -9.22569662 0 0 Z " fill="#2A4C65" transform="translate(317.25,342.625)"/>
<path d="M0 0 C3.95245538 2.1282452 6.4941227 3.74224349 8 8 C8.16858166 10.79084219 8.23284241 13.47771993 8.1953125 16.265625 C8.1924826 17.05902283 8.18965271 17.85242065 8.18673706 18.66986084 C8.17556779 21.19672917 8.15046944 23.72323932 8.125 26.25 C8.11496598 27.9661407 8.10584087 29.68228698 8.09765625 31.3984375 C8.07563914 35.59909574 8.04113187 39.7994872 8 44 C9.17949219 44.19722656 9.17949219 44.19722656 10.3828125 44.3984375 C13 45 13 45 14.875 46.625 C16.51175762 50.0803772 15.92777204 52.35518125 15 56 C13.10466125 58.58455285 12.11173483 58.96275506 9 60 C8.96132812 61.44632812 8.96132812 61.44632812 8.921875 62.921875 C8.83679688 64.81679688 8.83679688 64.81679688 8.75 66.75 C8.70359375 68.00296875 8.6571875 69.2559375 8.609375 70.546875 C7.91912375 74.45829873 7.19338134 75.70688042 4 78 C2 78.56640625 2 78.56640625 0 78.5625 C-0.99 78.59537109 -0.99 78.59537109 -2 78.62890625 C-5.16525408 77.63358221 -6.21111562 75.73114412 -8 73 C-8.390625 69.66796875 -8.390625 69.66796875 -8.25 66.1875 C-8.21390625 65.02605469 -8.1778125 63.86460937 -8.140625 62.66796875 C-8.09421875 61.78753906 -8.0478125 60.90710938 -8 60 C-9.23302856 60.02356567 -9.23302856 60.02356567 -10.4909668 60.04760742 C-14.22307428 60.11005073 -17.95507172 60.14902136 -21.6875 60.1875 C-22.98107422 60.21263672 -24.27464844 60.23777344 -25.60742188 60.26367188 C-26.85458984 60.27333984 -28.10175781 60.28300781 -29.38671875 60.29296875 C-31.10701294 60.31653442 -31.10701294 60.31653442 -32.86206055 60.34057617 C-36.37992719 59.95876461 -38.19245628 59.11890677 -41 57 C-43 54 -43 54 -42.8371582 50.65966797 C-41.96396333 46.84246438 -40.83408629 44.63490924 -38.60546875 41.4453125 C-37.90260742 40.42590576 -37.19974609 39.40649902 -36.47558594 38.35620117 C-35.72051758 37.28990479 -34.96544922 36.2236084 -34.1875 35.125 C-33.41207794 34.01282776 -32.63767113 32.89994702 -31.86425781 31.78637695 C-30.31620383 29.56196691 -28.7607108 27.34306924 -27.19873047 25.12841797 C-25.23868359 22.33960598 -23.30289421 19.53640005 -21.37890625 16.72265625 C-20.33659682 15.21048283 -19.2936772 13.69872973 -18.25 12.1875 C-17.7861792 11.50768066 -17.3223584 10.82786133 -16.84448242 10.12744141 C-12.43340269 3.83052987 -8.1270176 -0.781444 0 0 Z M-9 28 C-10.35286539 29.69777173 -11.6569414 31.43454727 -12.9375 33.1875 C-13.64777344 34.15042969 -14.35804688 35.11335938 -15.08984375 36.10546875 C-17.27969009 39.21245358 -17.27969009 39.21245358 -19 44 C-15.37 44 -11.74 44 -8 44 C-8 38.72 -8 33.44 -8 28 C-8.33 28 -8.66 28 -9 28 Z " fill="#2A4C65" transform="translate(216,434)"/>
<path d="M0 0 C1.44454746 1.24184897 2.88230927 2.49164364 4.3125 3.75 C5.62154297 4.76320313 5.62154297 4.76320313 6.95703125 5.796875 C10.16311468 8.45531897 11.23227412 10.01459606 11.6875 14.1875 C11.3125 17.75 11.3125 17.75 9.625 20.125 C6.92883883 22.01959974 5.62335597 22.75 2.3125 22.75 C-1.87864635 20.85212241 -4.86398543 18.64328059 -8.1875 15.5 C-23.87609892 1.44374085 -43.65094168 -1.53671651 -63.97216797 -0.47314453 C-80.2398547 0.86372525 -94.37810102 9.71006452 -106.4375 20.125 C-109.0047381 21.97911641 -110.51803764 22.67076344 -113.6875 22.75 C-117.17384601 21.12844371 -118.53052194 19.98546708 -120.6875 16.75 C-120.82704414 13.19162436 -120.41319658 10.77096568 -118.32421875 7.83203125 C-88.70511328 -23.94349732 -33.54216535 -26.56658229 0 0 Z " fill="#B6C4CF" transform="translate(317.6875,52.25)"/>
<path d="M0 0 C2.53046823 -0.29216869 4.8129288 -0.3963314 7.34375 -0.36328125 C8.06864624 -0.36377975 8.79354248 -0.36427826 9.54040527 -0.36479187 C11.07367696 -0.36245041 12.60695241 -0.35271756 14.14013672 -0.33618164 C16.49090845 -0.31259124 18.84054629 -0.31561921 21.19140625 -0.32226562 C22.67969428 -0.31668885 24.16797752 -0.30957897 25.65625 -0.30078125 C26.36148804 -0.30169266 27.06672607 -0.30260406 27.79333496 -0.30354309 C32.76896779 -0.23103221 32.76896779 -0.23103221 35 2 C35.24050903 4.02481079 35.24050903 4.02481079 35.22705078 6.54150391 C35.22689972 7.48232819 35.22674866 8.42315247 35.22659302 9.39248657 C35.21627045 10.41023163 35.20594788 11.42797668 35.1953125 12.4765625 C35.1924826 13.51694672 35.18965271 14.55733093 35.18673706 15.62924194 C35.17551704 18.96127694 35.15040915 22.29304586 35.125 25.625 C35.11497256 27.88020446 35.1058463 30.13541312 35.09765625 32.390625 C35.07727096 37.92726901 35.03812546 43.4633357 35 49 C22.79 49 10.58 49 -2 49 C-2.04587459 42.503649 -2.08571136 36.00785844 -2.10986328 29.51147461 C-2.11993006 27.30084327 -2.13358448 25.09022528 -2.15087891 22.87963867 C-2.17509738 19.70488189 -2.18647627 16.53030094 -2.1953125 13.35546875 C-2.20563507 12.36475876 -2.21595764 11.37404877 -2.22659302 10.35331726 C-2.22674408 9.43258926 -2.22689514 8.51186127 -2.22705078 7.56323242 C-2.231492 6.7527092 -2.23593323 5.94218597 -2.24050903 5.10710144 C-2 3 -2 3 0 0 Z " fill="#365F7D" transform="translate(174,246)"/>
<path d="M0 0 C3.11045116 3.38195164 5.53979626 7.12955395 8 11 C8.80050781 12.2065625 8.80050781 12.2065625 9.6171875 13.4375 C13 18.63594633 13 18.63594633 13 21 C17.10059577 17.28063875 19.74143737 12.82973102 22.55664062 8.1328125 C24.91594618 4.32194114 27.14644684 1.46627402 31 -1 C34.77910616 -1 37.00693033 -0.83289714 39.9375 1.625 C41.41877475 4.93608474 41.27168679 7.39105448 41 11 C39.56298828 14.04199219 39.56298828 14.04199219 37.5703125 17.046875 C36.85746094 18.13871094 36.14460938 19.23054688 35.41015625 20.35546875 C34.64878783 21.48721493 33.88706546 22.61872306 33.125 23.75 C32.36963326 24.89617424 31.61571248 26.0433028 30.86328125 27.19140625 C28.92351411 30.13775525 26.96703579 33.0718183 25 36 C22.51580971 39.72628543 22.7469743 41.70339852 22.7265625 46.15234375 C22.70627507 47.58269014 22.68542432 49.01302863 22.6640625 50.44335938 C22.64145858 52.69269489 22.62498903 54.9417182 22.61914062 57.19116211 C22.60960998 59.36629293 22.57583306 61.54002656 22.5390625 63.71484375 C22.52673584 65.66571899 22.52673584 65.66571899 22.51416016 67.65600586 C21.92211708 71.50653481 21.06583668 72.68362188 18 75 C16 75.56640625 16 75.56640625 14 75.5625 C13.01 75.59537109 13.01 75.59537109 12 75.62890625 C8.83676786 74.63421802 7.78296634 72.72956528 6 70 C5.72387695 66.9074707 5.72387695 66.9074707 5.98828125 63.42578125 C6.88338747 42.49746921 2.78265323 30.49944565 -10.34179688 14.10595703 C-13.08977022 10.61596615 -13.35468039 8.43350487 -13 4 C-10.1506461 -1.02029021 -5.27076924 -2.56727329 0 0 Z " fill="#2B4C65" transform="translate(455,337)"/>
<path d="M0 0 C0.70128525 -0.0004985 1.4025705 -0.00099701 2.12510681 -0.00151062 C3.60532469 0.00082705 5.08554676 0.01053762 6.56567383 0.02709961 C8.8351581 0.05073246 11.10347051 0.04765397 13.37304688 0.04101562 C24.49820941 0.08414691 24.49820941 0.08414691 26.77734375 2.36328125 C27.01785278 4.38809204 27.01785278 4.38809204 27.00439453 6.90478516 C27.00424347 7.84560944 27.00409241 8.78643372 27.00393677 9.75576782 C26.9936142 10.77351288 26.98329163 11.79125793 26.97265625 12.83984375 C26.96982635 13.88022797 26.96699646 14.92061218 26.96408081 15.99252319 C26.95286079 19.32455819 26.9277529 22.65632711 26.90234375 25.98828125 C26.89231631 28.24348571 26.88319005 30.49869437 26.875 32.75390625 C26.85461471 38.29055026 26.81546921 43.82661695 26.77734375 49.36328125 C14.89734375 49.36328125 3.01734375 49.36328125 -9.22265625 49.36328125 C-9.38765625 44.37203125 -9.55265625 39.38078125 -9.72265625 34.23828125 C-9.8009668 31.92352783 -9.8009668 31.92352783 -9.88085938 29.56201172 C-9.98936159 26.18337317 -10.08520775 22.80498531 -10.16845703 19.42565918 C-10.20455951 18.05189497 -10.24589252 16.67825817 -10.29248047 15.30480957 C-10.35675329 13.3690014 -10.39953766 11.43251604 -10.44140625 9.49609375 C-10.47169922 8.38379395 -10.50199219 7.27149414 -10.53320312 6.12548828 C-10.22265625 3.36328125 -10.22265625 3.36328125 -9.16040039 1.50268555 C-6.14207887 -0.27210424 -3.47228581 -0.00788817 0 0 Z " fill="#365E7D" transform="translate(270.22265625,245.63671875)"/>
<path d="M0 0 C0.7027002 -0.00191345 1.40540039 -0.0038269 2.12939453 -0.00579834 C3.61556354 -0.00715975 5.10174445 -0.00346632 6.58789062 0.00488281 C8.86615646 0.01558346 11.14363377 0.00498661 13.421875 -0.0078125 C14.86458508 -0.0064909 16.30729466 -0.00392849 17.75 0 C19.06742187 0.00225586 20.38484375 0.00451172 21.7421875 0.00683594 C24.875 0.265625 24.875 0.265625 26.875 2.265625 C27.11550903 4.29043579 27.11550903 4.29043579 27.10205078 6.80712891 C27.10189972 7.74795319 27.10174866 8.68877747 27.10159302 9.65811157 C27.09127045 10.67585663 27.08094788 11.69360168 27.0703125 12.7421875 C27.0674826 13.78257172 27.06465271 14.82295593 27.06173706 15.89486694 C27.05051704 19.22690194 27.02540915 22.55867086 27 25.890625 C26.98997256 28.14582946 26.9808463 30.40103812 26.97265625 32.65625 C26.95227096 38.19289401 26.91312546 43.7289607 26.875 49.265625 C14.995 49.265625 3.115 49.265625 -9.125 49.265625 C-9.17084059 42.60855305 -9.21068728 35.95202574 -9.23486328 29.29492188 C-9.24493859 27.02895251 -9.25859918 24.76299619 -9.27587891 22.49707031 C-9.30006011 19.24540999 -9.31146763 15.99392113 -9.3203125 12.7421875 C-9.33063507 11.72444244 -9.34095764 10.70669739 -9.35159302 9.65811157 C-9.35174408 8.71728729 -9.35189514 7.77646301 -9.35205078 6.80712891 C-9.356492 5.97662018 -9.36093323 5.14611145 -9.36550903 4.29043579 C-8.73794337 -0.99294879 -4.23251087 0.00724745 0 0 Z " fill="#365D7C" transform="translate(358.125,245.734375)"/>
<path d="M0 0 C1.24101974 -0.01210762 1.24101974 -0.01210762 2.5071106 -0.02445984 C4.25716059 -0.03828302 6.00723734 -0.04901307 7.75732422 -0.05688477 C10.42858031 -0.07411085 13.09860253 -0.11801269 15.76953125 -0.16210938 C17.47134508 -0.17223576 19.17316942 -0.18075203 20.875 -0.1875 C21.67098602 -0.20500809 22.46697205 -0.22251617 23.28707886 -0.24055481 C27.25351331 -0.22509771 29.13451625 -0.03757547 32.57446289 2.13989258 C34.5703125 4.23828125 34.5703125 4.23828125 35.19921875 6.23828125 C35.17730469 6.89828125 35.15539062 7.55828125 35.1328125 8.23828125 C35.13474609 9.22828125 35.13474609 9.22828125 35.13671875 10.23828125 C34.30727859 13.16706307 32.93156243 14.3428195 30.5703125 16.23828125 C27.5546875 16.62890625 27.5546875 16.62890625 24.3203125 16.48828125 C23.24265625 16.4521875 22.165 16.41609375 21.0546875 16.37890625 C20.23484375 16.3325 19.415 16.28609375 18.5703125 16.23828125 C18.57697433 16.90369431 18.58363617 17.56910736 18.59049988 18.25468445 C18.65687929 25.18137784 18.70212413 32.10798085 18.73510742 39.03491211 C18.75019212 41.61991038 18.77066252 44.20488307 18.79663086 46.78979492 C18.83302692 50.50576085 18.85004235 54.22138832 18.86328125 57.9375 C18.87876511 59.09287766 18.89424896 60.24825531 18.91020203 61.43864441 C18.91042862 62.51938736 18.91065521 63.60013031 18.91088867 64.71362305 C18.91755051 65.66182419 18.92421234 66.61002533 18.93107605 67.58695984 C18.45889455 71.05711342 17.06161257 73.74698118 14.5703125 76.23828125 C7.31606934 76.83289134 7.31606934 76.83289134 4.46710205 74.56134033 C2.11866643 71.6851358 2.08311718 70.31696172 2.11621094 66.64355469 C2.11651306 65.5226947 2.11681519 64.40183472 2.11712646 63.24700928 C2.13777161 62.04272278 2.15841675 60.83843628 2.1796875 59.59765625 C2.18534729 58.36033752 2.19100708 57.1230188 2.19683838 55.84820557 C2.21542999 52.56650189 2.25133752 49.28558844 2.2956543 46.00415039 C2.33665085 42.65258058 2.35451749 39.30097681 2.375 35.94921875 C2.41911346 29.37859734 2.48606173 22.80850393 2.5703125 16.23828125 C1.32749512 16.27526123 1.32749512 16.27526123 0.05957031 16.31298828 C-1.02485352 16.33216309 -2.10927734 16.35133789 -3.2265625 16.37109375 C-4.30260742 16.39574707 -5.37865234 16.42040039 -6.48730469 16.44580078 C-9.4296875 16.23828125 -9.4296875 16.23828125 -12.6796875 14.11328125 C-14.73444227 10.73761271 -15.0903327 9.11957177 -14.4296875 5.23828125 C-11.09852521 -0.63090946 -6.1146193 0.05645792 0 0 Z " fill="#2A4D65" transform="translate(344.4296875,335.76171875)"/>
<path d="M0 0 C3.54759681 2.51884677 6.5603313 4.96521485 8.61328125 8.85546875 C9.30392346 12.93025781 9.28331919 14.81020957 7.05078125 18.29296875 C3.66879952 20.46090576 1.58880346 20.24514455 -2.38671875 19.85546875 C-4.7405506 18.48955903 -6.65748742 17.20826881 -8.76171875 15.54296875 C-18.99689754 8.05732259 -27.88948791 6.73424542 -40.38671875 7.85546875 C-48.14332479 9.68115927 -55.757671 14.226421 -61.38671875 19.85546875 C-68.31409305 20.52585981 -68.31409305 20.52585981 -71.88671875 18.29296875 C-73.9798349 14.891655 -73.9381956 12.78474132 -73.38671875 8.85546875 C-68.18256361 -0.6066315 -56.05158317 -4.97529386 -46.38671875 -8.14453125 C-30.60883705 -12.63781071 -13.55190431 -8.41833526 0 0 Z " fill="#B6C4CF" transform="translate(295.38671875,79.14453125)"/>
<path d="M0 0 C3.19085187 0.94543759 4.47687442 1.36371447 6.375 4 C7.75660387 6.76320775 7.52518573 9.02215916 7.55200195 12.11450195 C7.56483719 13.39956131 7.57767242 14.68462067 7.59089661 16.00862122 C7.59906418 17.41850398 7.60650788 18.8283911 7.61328125 20.23828125 C7.61735678 20.9473229 7.6214323 21.65636456 7.62563133 22.38689232 C7.64649266 26.14033085 7.66079363 29.89373282 7.67016602 33.6472168 C7.68122617 37.52111216 7.71562044 41.39443241 7.75533772 45.26812458 C7.78150477 48.24931392 7.78985791 51.23036631 7.79344749 54.21166039 C7.7983139 55.63939482 7.80992961 57.06712311 7.82848549 58.49474525 C7.85287217 60.49546058 7.84949259 62.49645562 7.8449707 64.49731445 C7.85377007 66.20368828 7.85377007 66.20368828 7.86274719 67.9445343 C7.26815989 71.66929407 5.9933039 73.33514051 3.375 76 C1.375 76.62890625 1.375 76.62890625 -0.625 76.5625 C-1.285 76.56378906 -1.945 76.56507813 -2.625 76.56640625 C-5.55916944 75.7354403 -6.72193959 74.36585718 -8.625 72 C-9.1396637 69.00904846 -9.1396637 69.00904846 -9.15844727 65.47485352 C-9.16706284 64.82881165 -9.17567841 64.18276978 -9.18455505 63.51715088 C-9.20720756 61.38732524 -9.20047835 59.25881634 -9.19140625 57.12890625 C-9.1966426 55.64444081 -9.20291913 54.15997872 -9.21018982 52.67552185 C-9.22059287 49.56599256 -9.21603502 46.4569209 -9.20141602 43.34741211 C-9.18423588 39.36792399 -9.20771205 35.38988078 -9.24290562 31.41055393 C-9.26489774 28.34521467 -9.26343383 25.28022012 -9.2551403 22.21482658 C-9.2543216 20.7480403 -9.26116973 19.2812285 -9.27591133 17.81451607 C-9.29339164 15.7602961 -9.27879257 13.70865846 -9.25610352 11.65454102 C-9.25514175 10.48746109 -9.25417999 9.32038116 -9.25318909 8.11793518 C-8.17492009 2.76608664 -5.47257866 0 0 0 Z " fill="#2A4C65" transform="translate(24.625,336)"/>
<path d="M0 0 C3.74973906 -0.11622939 7.49901464 -0.1872595 11.25 -0.25 C12.31347656 -0.28351563 13.37695312 -0.31703125 14.47265625 -0.3515625 C15.49746094 -0.36445312 16.52226562 -0.37734375 17.578125 -0.390625 C18.99206543 -0.4220459 18.99206543 -0.4220459 20.43457031 -0.45410156 C23 0 23 0 25.30786133 1.55761719 C27.56908973 4.82140726 27.55861785 7.63603085 27.49609375 11.46875 C27.49754898 12.186073 27.49900421 12.903396 27.50050354 13.64245605 C27.49884741 15.15539624 27.4873179 16.66835376 27.46655273 18.18115234 C27.43759281 20.49259234 27.44594843 22.80173775 27.45898438 25.11328125 C27.45274647 26.58594861 27.4443551 28.05860875 27.43359375 29.53125 C27.43652939 30.21989136 27.43946503 30.90853271 27.44248962 31.61804199 C27.38425645 34.59059259 27.10953997 36.77978175 25.77832031 39.45605469 C24 41 24 41 21.73168945 41.36230469 C20.86761475 41.29946289 20.00354004 41.23662109 19.11328125 41.171875 C17.7065918 41.08486328 17.7065918 41.08486328 16.27148438 40.99609375 C15.29501953 40.91488281 14.31855469 40.83367187 13.3125 40.75 C12.32443359 40.68425781 11.33636719 40.61851563 10.31835938 40.55078125 C7.87698692 40.38566427 5.43860383 40.20139619 3 40 C3.33 39.01 3.66 38.02 4 37 C4.08494728 34.34105893 4.11594796 31.70914623 4.09765625 29.05078125 C4.09553383 27.89185616 4.09553383 27.89185616 4.09336853 26.70951843 C4.08777466 24.24380611 4.07522333 21.77818485 4.0625 19.3125 C4.05748421 17.63997527 4.05292144 15.96744912 4.04882812 14.29492188 C4.03780724 10.19657954 4.02054684 6.09830521 4 2 C2.68 1.34 1.36 0.68 0 0 Z " fill="#2B4D66" transform="translate(120,74)"/>
<path d="M0 0 C0.7027002 -0.00191345 1.40540039 -0.0038269 2.12939453 -0.00579834 C3.61556354 -0.00715975 5.10174445 -0.00346632 6.58789062 0.00488281 C8.86615646 0.01558346 11.14363377 0.00498661 13.421875 -0.0078125 C14.86458508 -0.0064909 16.30729466 -0.00392849 17.75 0 C19.06742187 0.00225586 20.38484375 0.00451172 21.7421875 0.00683594 C24.875 0.265625 24.875 0.265625 26.875 2.265625 C27.0703125 5.5234375 27.0703125 5.5234375 27 9.390625 C26.98195313 10.67195313 26.96390625 11.95328125 26.9453125 13.2734375 C26.92210937 14.26085937 26.89890625 15.24828125 26.875 16.265625 C26.215 15.935625 25.555 15.605625 24.875 15.265625 C22.50161099 15.16759693 20.12541171 15.13484624 17.75 15.1328125 C17.0472998 15.13185577 16.34459961 15.13089905 15.62060547 15.12991333 C14.13443919 15.12923262 12.64826994 15.1310793 11.16210938 15.13525391 C8.88404681 15.14060375 6.60618141 15.13530528 4.328125 15.12890625 C2.88541623 15.12956705 1.44270758 15.13084825 0 15.1328125 C-1.97613281 15.13450439 -1.97613281 15.13450439 -3.9921875 15.13623047 C-7.02995023 15.04729946 -7.02995023 15.04729946 -9.125 16.265625 C-9.17884521 13.97421214 -9.21772087 11.68244312 -9.25 9.390625 C-9.27320313 8.11445313 -9.29640625 6.83828125 -9.3203125 5.5234375 C-8.94192942 -0.78799224 -5.41645797 0.00927476 0 0 Z " fill="#2B4D66" transform="translate(358.125,245.734375)"/>
<path d="M0 0 C0.7027002 -0.00191345 1.40540039 -0.0038269 2.12939453 -0.00579834 C3.61556354 -0.00715975 5.10174445 -0.00346632 6.58789062 0.00488281 C8.86615646 0.01558346 11.14363377 0.00498661 13.421875 -0.0078125 C14.86458508 -0.0064909 16.30729466 -0.00392849 17.75 0 C19.06742187 0.00225586 20.38484375 0.00451172 21.7421875 0.00683594 C24.875 0.265625 24.875 0.265625 26.875 2.265625 C27.0703125 5.5234375 27.0703125 5.5234375 27 9.390625 C26.98195313 10.67195313 26.96390625 11.95328125 26.9453125 13.2734375 C26.92210937 14.26085937 26.89890625 15.24828125 26.875 16.265625 C26.215 15.935625 25.555 15.605625 24.875 15.265625 C22.50161099 15.16759693 20.12541171 15.13484624 17.75 15.1328125 C17.0472998 15.13185577 16.34459961 15.13089905 15.62060547 15.12991333 C14.13443919 15.12923262 12.64826994 15.1310793 11.16210938 15.13525391 C8.88404681 15.14060375 6.60618141 15.13530528 4.328125 15.12890625 C2.88541623 15.12956705 1.44270758 15.13084825 0 15.1328125 C-1.97613281 15.13450439 -1.97613281 15.13450439 -3.9921875 15.13623047 C-7.02995023 15.04729946 -7.02995023 15.04729946 -9.125 16.265625 C-9.17884521 13.97421214 -9.21772087 11.68244312 -9.25 9.390625 C-9.27320313 8.11445313 -9.29640625 6.83828125 -9.3203125 5.5234375 C-8.94192942 -0.78799224 -5.41645797 0.00927476 0 0 Z " fill="#2B4D66" transform="translate(270.125,245.734375)"/>
<path d="M0 0 C1.08946678 -0.0049926 1.08946678 -0.0049926 2.20094299 -0.01008606 C3.74015671 -0.015158 5.27938145 -0.0174943 6.81860352 -0.01733398 C9.17808096 -0.01951891 11.53708986 -0.0376669 13.89648438 -0.05664062 C15.38932131 -0.05957477 16.88216048 -0.06155942 18.375 -0.0625 C19.43756264 -0.07327827 19.43756264 -0.07327827 20.52159119 -0.08427429 C25.52508288 -0.06085462 25.52508288 -0.06085462 27.75390625 2.16796875 C27.94921875 5.42578125 27.94921875 5.42578125 27.87890625 9.29296875 C27.86085937 10.57429688 27.8428125 11.855625 27.82421875 13.17578125 C27.80101562 14.16320312 27.7778125 15.150625 27.75390625 16.16796875 C27.09390625 15.83796875 26.43390625 15.50796875 25.75390625 15.16796875 C23.20028021 15.08138306 20.67436205 15.05234359 18.12109375 15.0703125 C17.36925812 15.07172745 16.61742249 15.0731424 15.84280396 15.07460022 C13.43813115 15.0802041 11.03355098 15.09275718 8.62890625 15.10546875 C7.00000134 15.11048325 5.37109498 15.11504625 3.7421875 15.11914062 C-0.25394202 15.13017478 -4.25000217 15.14744196 -8.24609375 15.16796875 C-8.27294787 12.85553083 -8.29242216 10.54300605 -8.30859375 8.23046875 C-8.32019531 6.94269531 -8.33179688 5.65492188 -8.34375 4.328125 C-8.16622961 -1.41643467 -4.75842072 0.00745395 0 0 Z " fill="#2B4D66" transform="translate(181.24609375,245.83203125)"/>
<path d="M0 0 C1.54586876 3.09173752 1.29359521 5.59429552 1 9 C-0.5 11.4375 -0.5 11.4375 -3 13 C-5.8089715 13.61014545 -8.19636021 13.65360928 -11 13 C-13.5625 10.9375 -13.5625 10.9375 -15 8 C-14.9387431 4.44709956 -14.74607699 2.06582427 -12.6875 -0.875 C-7.89027952 -4.07314699 -5.00229245 -2.54833766 0 0 Z " fill="#2A4D65" transform="translate(258,499)"/>
</svg>
